<?xml version="1.0" encoding="UTF-8" standalone="no"?>
<svg width="75px" height="67px" viewBox="0 0 75 67" version="1.1" xmlns="http://www.w3.org/2000/svg" xmlns:xlink="http://www.w3.org/1999/xlink" xmlns:sketch="http://www.bohemiancoding.com/sketch/ns">
    <!-- Generator: Sketch 3.4.3 (16044) - http://www.bohemiancoding.com/sketch -->
    <title>noun_113108_cc</title>
    <desc>Created with Sketch.</desc>
    <defs></defs>
    <g id="Page-1" stroke="none" stroke-width="1" fill="none" fill-rule="evenodd" sketch:type="MSPage">
        <g id="noun_113108_cc" sketch:type="MSLayerGroup" transform="translate(-1.000000, 0.000000)" fill="#D32F2F">
            <path d="M64.5151437,32.6465312 L64.5151437,14.2868803 C64.5151437,6.41845849 53.413116,0.478571429 38.7125,0.478571429 C24.011884,0.478571429 12.9098563,6.41845849 12.9098563,14.2868803 L12.9098563,14.82687 L12.9098563,14.82687 L12.9098563,32.6465312 C5.78924538,36.2721766 1.425,41.286367 1.425,47.0719713 C1.425,58.1803315 17.8100616,66.8973086 38.7125,66.8973086 C59.6149384,66.8973086 76,58.1803315 76,47.0719713 C75.9234343,41.286367 71.6357546,36.2721766 64.5151437,32.6465312 L64.5151437,32.6465312 Z M17.7334959,22.5410091 C22.3274384,25.9352303 29.9074435,28.0951892 38.7125,28.0951892 C47.5175565,28.0951892 55.0209959,25.9352303 59.6915041,22.5410091 L59.6915041,42.5977706 C59.6915041,46.7634057 50.7333162,51.4690305 38.7125,51.4690305 C26.6916838,51.4690305 17.7334959,46.7634057 17.7334959,42.5977706 L17.7334959,22.5410091 L17.7334959,22.5410091 Z M38.7125,5.41562042 C50.7333162,5.41562042 59.6915041,10.1212452 59.6915041,14.2868803 C59.6915041,18.4525154 50.7333162,23.1581402 38.7125,23.1581402 C26.6916838,23.1581402 17.7334959,18.4525154 17.7334959,14.2868803 C17.7334959,10.1212452 26.6916838,5.41562042 38.7125,5.41562042 L38.7125,5.41562042 Z M38.7125,61.1117043 C20.1070329,61.1117043 7.16742813,53.7061308 7.16742813,46.9948299 C7.16742813,44.3720226 9.23470226,41.5949325 12.9098563,39.2035494 L12.9098563,42.5977706 C12.9098563,50.4661924 24.011884,56.4060795 38.7125,56.4060795 C53.413116,56.4060795 64.5151437,50.4661924 64.5151437,42.5977706 L64.5151437,39.2035494 C68.1902977,41.5949325 70.2575719,44.3720226 70.2575719,46.9948299 C70.2575719,53.7061308 57.3179671,61.1117043 38.7125,61.1117043 L38.7125,61.1117043 Z" id="Shape" sketch:type="MSShapeGroup"></path>
        </g>
    </g>
</svg>